<svg id="Graphic_Elements" data-name="Graphic Elements" xmlns="http://www.w3.org/2000/svg" viewBox="0 0 1200 1200"><g id="layer1"><path id="path3233" d="M349.44,1009.3C305,982.1,232.08,935.57,119.37,862.53,65,827.29,48.7,813.27,50.08,802.89c1.06-8,8.92-15.23,19.12-17.6,14-3.24,17.73-8.86,19.44-29.09,1.67-19.81-1.74-28.65-16.2-42.06q-18.31-17-16-33.54C58.53,666,63,663.77,93.28,661.86c19-1.2,38.25-5.32,42.87-9.15,6-5,32.36,8.2,92,46,46,29.13,83.58,54.47,83.58,56.33s-3.9,1-8.66-1.83-40.59-24.87-79.61-48.91c-66.09-40.71-105-57.91-74.15-32.74,11.49,9.35,11.68,10.4,1.33,7.14-6.67-2.09-12.13-2.4-12.13-.69,0,3.91,168.32,116.28,227.65,152,47.15,28.37,57,26.61,53.46-9.49-1.47-14.91-19.47-29-108.53-85-58.72-36.89-119.23-73.8-134.48-82s-34.71-25.78-43.26-39l-15.55-24.06,32.87,4.74c32,4.61,51.93,15.33,222.79,119.82,60.33,36.9,75.19,41.45,89.31,27.33,14.92-14.93,8.86-25.33-24.6-42.19-18.1-9.13-71.1-40.33-117.79-69.33-77.66-48.26-84.87-51.39-84.87-36.9,0,18.17-6,26.45-15.16,20.81-3.64-2.24-3.18-7.65,1.08-12.79q15.87-19.11-22.51-42.07l-22.31-13.37L239,538.3c101.63-13.34,134.52-11.81,166.29,7.76,15.24,9.39,30.05,17.17,32.91,17.29s5.2-63.18,5.2-140.67,1.77-142.65,3.93-144.82,20.39,1.86,40.51,8.93c65.7,23.09,98-.13,89.68-64.47-4.85-37.48-.49-39.94,33.74-19.08,39.53,24.11,120.8,4.88,127.93-23.56,6.57-26.18,23.71-8.21,97.73,36.34,125.73,75.66,147.79,91.6,154.83,111.8,3.74,10.72,26.09,35.76,49.68,55.65s57.55,49.83,75.49,66.55l32.61,30.39.43,258.64c.41,247.52-.15,259.16-13,270.81-21.64,19.58-61.4,20.37-104.59,2.06-23.65-10-37.29-19.78-35.94-25.71,4.07-17.92,1.33-497.64-2.9-508.67-6.82-17.77,8.4-12.64,31.73,10.7,29.76,29.75,74.66,35.48,97.67,12.47l16-16-55-51c-30.25-28-63.57-57.28-74-65l-19.06-14v14.32c0,7.89,3.9,14.34,8.66,14.34S1031.43,405,1060,431.31c50.56,46.59,51.62,48.23,39.1,60.62s-12.74,12.3-8.33-2.43c3.2-10.71.87-17.16-7.92-21.93-6.85-3.71-28-22.57-47.1-41.91s-38.54-35.19-43.31-35.24c-5.88-.05-8.66,12.07-8.66,37.79,0,30.34-2.66,39.29-13.4,45-15.19,8.13-44,9.21-75.81,2.84-21.42-4.28-21.65-4.78-21.66-46.76V386.88L915,389.25c32.68,1.84,45-.33,55.44-9.74,20.5-18.55,16-23.13-12.6-12.91-33.5,12-63.13,12.15-84.88.57-9.52-5.07-70.33-38.86-135.11-75.09-149.75-83.72-151.47-84.62-146.33-76.31,4.38,7.09,55.57,37.52,182.78,108.64,39.09,21.86,72.36,41.82,73.93,44.35,4.13,6.69,5.59,125.84,4.72,383.6-.76,223.6-1,226.92-14.92,226.92S823.86,977,824.79,687.76c.51-160.34-.14-292.38-1.45-293.44-24.79-20-213.52-124.26-217.6-120.18-3.12,3.12,80.44,53,168.47,100.64,39.91,21.58,43,24.89,38.95,42-6.07,25.78-10.81,29.54-42.71,33.82-24.51,3.28-35.07-.49-85.72-30.61C566.31,349.58,478.87,300.26,472.42,300.26c-10.42,0-12.66,23.4-14.53,151.87-1.23,84.26.47,118.46,5.71,115.21,4.89-3,7.47-47.78,7.47-129.66,0-97.21,1.93-124.31,8.66-121.71,8.28,3.2,200.82,116.13,217.71,127.69,6,4.11,7.1,46.7,4.19,163.54-3.33,133.92-5.46,157.4-14,154.14-5.51-2.12-1.94,5.76,7.94,17.5,19.18,22.78,23.64,55.44,9.22,67.41-4.81,4-71.06,13.46-147.23,21L419.11,881.07l-65.83-42.15C256.53,777,234.78,763.63,176.6,730.56L148.89,714.8,167.63,731c10.3,8.9,67.61,47.17,127.33,85.06,86,54.53,105.89,69.94,95.58,73.94-13.94,5.41-1.69,4.86,183.68-8.36,106-7.56,122.54-10.37,137.77-23.47,11-9.44,17.59-22.74,18.1-36.4.78-20.93,1.8-21.58,37.19-23.81l36.38-2.28v46c0,43.09-1.06,46.16-16.75,49.16-9.21,1.76-26.71-1-38.9-6.12-36.5-15.35-41.37-10.71-15.73,14.93,21.67,21.66,23.94,27.41,21.28,53.7-1.64,16.19-5.24,34.46-8,40.58-4.34,9.65-.31,10.7,30,7.78,24.2-2.32,35-.83,35,4.83s-18.59,7.76-64.1,6.72c-55.48-1.26-207.86,7.27-320.82,18-31.13,3-39.6.52-76.22-21.9Zm236-9.82c142.06-8.88,149-11.12,149-48.47,0-10.28-5.46-25.42-12.13-33.64l-12.12-15-146.41,12-146.41,12,3.16,24.73c3.27,25.56-12.47,57.49-23.1,46.86-3.06-3.06-1.28-8.21,4-11.45,15.48-9.57,10.58-50.44-7.77-64.76-27-21-284.74-185-290.88-185-6.72,0-6.75,12.36-.06,29.22,2.59,6.54,38.23,33.71,79.19,60.37s74.48,50.07,74.48,52-34.3-18.54-76.22-45.52c-70.25-45.22-97-54.53-97-33.75,0,4,36.64,31.08,81.41,60.1S277.41,933,315.94,958.79c75.41,50.4,85.23,54.7,117,51.21,11.43-1.26,80-6,152.43-10.52Zm128.73-36.94c-.3-7.3,1.34-11.4,3.64-9.09s2.55,8.27.55,13.28c-2.22,5.52-3.86,3.88-4.19-4.19ZM296.06,931.38c-28.47-18.25-32.42-24.68-7.31-11.92,12.14,6.17,24,14.37,26.39,18.2,5.56,9,3.89,8.45-19.08-6.28Zm414.74,2.18c-2.46-6.43-2.92-13.25-1-15.15s5.48,1.79,8,8.22,2.92,13.24,1,15.14S713.27,940,710.8,933.56ZM247.69,852.18C132.19,778.6,93.36,751.75,130.2,770.92,151,781.74,361.67,916.67,370.26,924.66c15.61,14.52-6.65,1.36-122.57-72.48Zm60.15,60.9C294.92,902.73,295,902.6,310,909.86c8.57,4.15,15.59,9,15.59,10.77C325.57,925.94,322,924.4,307.84,913.08Zm-34.65-20.79c-12.91-10.34-12.83-10.47,2.14-3.22,8.58,4.16,15.59,9,15.59,10.78C290.92,905.15,287.33,903.62,273.19,892.29ZM200.76,871c-37.25-24.67-63.17-45.54-41.48-33.39,45.86,25.67,91.53,58.57,81.32,58.57-1,0-18.93-11.33-39.84-25.18Zm-73.07-48c-12.91-10.35-12.83-10.48,2.14-3.22,8.58,4.15,15.59,9,15.59,10.77C145.42,835.86,141.83,834.33,127.69,823ZM1046,762.76c0-130.52-2.39-240.42-5.19-244.24s-11.1-11.6-18.43-17.32c-12.92-10.06-13-9.85-2,7,9.77,15,11.22,43,10.8,207.86-.67,259.05,0,284.05,8,284.05,4.49,0,6.89-83.65,6.82-237.31ZM591.28,847.44c49-3.74,91.86-8.53,95.27-10.64,9.38-5.8,7.45-34.94-2.89-43.52-5-4.15-16.69-6.38-26-4.95s-48.06,4.58-86.17,7c-123.08,7.76-135.11,10.3-135.11,28.56,0,8.81-3.12,18-6.93,20.3s-6.93,7.66-6.93,11.78c0,5,13.08,6,39.84,2.89,21.91-2.53,79.92-7.66,128.9-11.4ZM550.72,768c68.81-8.49,85.24-12.8,95.27-25,6.67-8.09,12.13-19.9,12.13-26.25,0-16.74-19.74-42.35-32.65-42.35-10,0-10,1.23.4,12.67,12.16,13.44,15.55,46.34,5.42,52.6-7.61,4.71-133.65,23.66-170.64,25.66-24.07,1.31-42.66-7.52-141.54-67.23-147.73-89.2-155-93.27-158.86-89.36-1.82,1.81-2,4.21-.42,5.32,13.1,9.19,147,94.48,196.89,125.39,70.86,43.91,70.1,43.8,194,28.51Zm19-28.71c52.15-5,65.92-14.35,54-36.69-8.89-16.63-12.84-16.92-87.93-6.42l-56.51,7.89-2.8,24-2.8,24,24.67-4.14c13.57-2.27,45.71-6.15,71.41-8.61Zm-34.11-57.76c29.81-3.9,56-7.09,58.13-7.09s-12.86-8.77-33.41-19.48-71.65-40.58-113.57-66.36L370.58,541.7l-45,3.95c-24.77,2.17-56.73,4-71,4s-26,3.12-26,6.86,16,14.91,35.5,24.81,70,39.49,112.07,65.76c50.37,31.43,81.49,46.71,90.95,44.65,7.91-1.73,38.77-6.33,68.58-10.23Zm52.62-30.14c-11.52-9-54.86-32.85-54.86-30.16,0,4.7,43.68,32.17,51.39,32.31C588.28,653.58,589.84,652.62,588.26,651.37ZM791.5,429.2c6.66-5.07,12.09-12,12-15.37s-41.35-30-91.81-59.16c-128-73.95-120.44-70.77-138.43-58.17-8.4,5.88-21.36,10.7-28.78,10.7s19,19.2,58.7,42.66,89.35,53,110.31,65.64c41.26,24.87,59.1,28,78,13.7Zm171.4-83.81c13-15.68,5.19-26.3-35.49-48.13-20.45-11-65.53-38.17-100.17-60.43-61.82-39.74-79-47.11-79-33.84,0,6.73-37.51,19.16-69.29,23-14.17,1.69-7.87,6.89,34.64,28.57,28.58,14.57,69.12,36.72,90.08,49.23,71.56,42.69,93.31,51.95,122,51.95,17,0,32.2-4.22,37.25-10.31Zm-83.06,679.95c-61-23.89-64.51-25.89-57.92-32.49,4.31-4.31,17.67-1.23,37.5,8.65,32.49,16.18,83.47,20.33,120.88,9.83l20.79-5.83-16.62,12.26c-21.54,15.88-73.81,19.67-104.64,7.58Zm5.86-29.92c-7.81-2.07-12.22-12.3-13.86-32.11-4.49-54.39-2.19-58.23,34.32-57.46,17.92.37,42.7-1.91,55.09-5.07L983.77,895v44.2c0,25.14-3.59,47.78-8.32,52.51-7.88,7.88-65.07,10.22-89.75,3.67Zm-116.24-27.8c4.08-10.74,6.42-20.72,5.2-22.19s5-5.33,13.78-8.59c15.12-5.59,15.89-4.48,13.86,20-1.86,22.49-4.67,26.21-21.2,28.11-18.25,2.1-18.74,1.36-11.64-17.32Zm6.44-49.89c0-3.36,6.24-7.75,13.86-9.74,9-2.36,13.86-.22,13.86,6.12,0,5.36-6.24,9.74-13.86,9.74S775.9,921.1,775.9,917.73Zm121.26-33.54c-30.93-7.6-37.36-29.49-27-92l4-24.25h109.6V874.7l-26,7.22c-27.16,7.54-37.61,7.93-60.62,2.28ZM735.77,780.06,713,777.43l2-49.77,2-49.78,34.65-.31c19.05-.17,40.3-2.92,47.22-6.11,11.75-5.42,12.29-2.39,8.2,45.35-2.42,28.13-6.52,53.08-9.12,55.45-7.59,6.9-37.51,10.65-62.19,7.8ZM892,749.51c-18.86-6.89-19.06-7.61-19.06-69.21,0-56.08,1.21-61.88,12.13-58.53,19.58,6,59.13,6.44,79.68.88l19-5.16V743.06l-26,7.21C926.91,758.84,917.21,758.73,892,749.51ZM195.28,708.12c-20.21-11.78-35.42-22.74-33.8-24.36,2.92-2.92,74,39,74,43.66,0,4-1.83,3.07-40.21-19.3ZM725.5,655.75c-10.27-2.67-12.11-10.13-11.07-44.86.69-23.13,4.63-42.69,8.85-44s25.54-3.6,47.45-5.14l39.84-2.8v44c0,40.91-1.27,44.53-17.78,50.8-18.14,6.9-45.24,7.69-67.29,2Zm169.94-51.44-22.51-6.5v-101H983.79V597.55l-26,7.22C927.92,613.07,925.72,613.05,895.44,604.31Zm-166.28-59.2c-5.45-2.19-8.67-17.52-8.67-41.24V466.12l32.92,1.52c18.1.84,38.36-1,45-4,10.77-4.89,12.13-1.12,12.13,33.52,0,35.51-1.6,39.63-17.78,45.78-18.62,7.08-48.91,8.11-63.63,2.16Z"/></g></svg>